<?xml version="1.0" encoding="UTF-8"?><svg id="Layer_2" xmlns="http://www.w3.org/2000/svg" viewBox="0 0 954.79 188"><defs><style>.cls-1{fill:#fff;}</style></defs><g id="Layer_1-2"><g><path class="cls-1" d="M6.4,8c1.6,0,3.03,.6,4.3,1.8,1.27,1.2,1.9,2.67,1.9,4.4v127.6c-.13,1.73-.83,3.2-2.1,4.4-1.27,1.2-2.7,1.8-4.3,1.8-2,0-3.53-.6-4.6-1.8-1.07-1.2-1.6-2.67-1.6-4.4V14.2c0-1.73,.6-3.2,1.8-4.4,1.2-1.2,2.73-1.8,4.6-1.8Zm-1,62.6H100.4l-.2,11.8H4.6l.8-11.8ZM100.2,8c1.87,0,3.37,.6,4.5,1.8,1.13,1.2,1.7,2.67,1.7,4.4v127.6c-.13,1.73-.77,3.2-1.9,4.4-1.13,1.2-2.63,1.8-4.5,1.8-1.73,0-3.2-.6-4.4-1.8-1.2-1.2-1.8-2.67-1.8-4.4V14.2c0-1.73,.63-3.2,1.9-4.4,1.27-1.2,2.77-1.8,4.5-1.8Z"/><path class="cls-1" d="M187.2,150c-10.27,0-19.33-2.2-27.2-6.6-7.87-4.4-14-10.53-18.4-18.4-4.4-7.87-6.6-17.07-6.6-27.6,0-11.33,2.23-21,6.7-29,4.47-8,10.27-14.17,17.4-18.5,7.13-4.33,14.7-6.5,22.7-6.5,5.87,0,11.57,1.03,17.1,3.1,5.53,2.07,10.47,5.13,14.8,9.2,4.33,4.07,7.8,9.03,10.4,14.9,2.6,5.87,4.03,12.67,4.3,20.4-.13,1.6-.8,2.97-2,4.1-1.2,1.13-2.6,1.7-4.2,1.7h-80.2l-2.4-10.8h78.8l-2.6,2.4v-4c-.67-6.27-2.73-11.57-6.2-15.9-3.47-4.33-7.63-7.67-12.5-10-4.87-2.33-9.97-3.5-15.3-3.5-4,0-8.1,.8-12.3,2.4-4.2,1.6-8,4.1-11.4,7.5-3.4,3.4-6.17,7.73-8.3,13-2.13,5.27-3.2,11.5-3.2,18.7,0,7.87,1.6,15,4.8,21.4,3.2,6.4,7.83,11.47,13.9,15.2,6.07,3.73,13.3,5.6,21.7,5.6,4.67,0,8.83-.67,12.5-2,3.67-1.33,6.93-3.1,9.8-5.3,2.87-2.2,5.23-4.5,7.1-6.9,1.47-1.2,2.87-1.8,4.2-1.8,1.47,0,2.7,.54,3.7,1.6,1,1.07,1.5,2.27,1.5,3.6,0,1.6-.67,3-2,4.2-4,4.8-9.2,8.97-15.6,12.5s-13.4,5.3-21,5.3Z"/><path class="cls-1" d="M329.2,44c1.73,0,3.17,.6,4.3,1.8,1.13,1.2,1.7,2.6,1.7,4.2v88.2c0,10.8-2.13,19.9-6.4,27.3-4.27,7.4-10,13-17.2,16.8-7.2,3.8-15.4,5.7-24.6,5.7-5.73,0-11.03-.63-15.9-1.9-4.87-1.27-8.83-2.83-11.9-4.7-1.6-.93-2.8-2.1-3.6-3.5-.8-1.4-.87-2.83-.2-4.3,.67-1.87,1.7-3.1,3.1-3.7,1.4-.6,2.83-.57,4.3,.1,2.27,1.2,5.53,2.67,9.8,4.4,4.27,1.73,9.13,2.6,14.6,2.6,7.33,0,13.67-1.53,19-4.6,5.33-3.07,9.5-7.5,12.5-13.3,3-5.8,4.5-12.7,4.5-20.7v-14.4l1.4,5c-2,4-4.87,7.6-8.6,10.8-3.73,3.2-7.93,5.7-12.6,7.5-4.67,1.8-9.67,2.7-15,2.7-8,0-14.63-1.63-19.9-4.9-5.27-3.27-9.2-7.77-11.8-13.5-2.6-5.73-3.9-12.47-3.9-20.2V50c0-1.6,.57-3,1.7-4.2,1.13-1.2,2.63-1.8,4.5-1.8,1.73,0,3.17,.6,4.3,1.8,1.13,1.2,1.7,2.6,1.7,4.2v59.6c0,9.33,2.03,16.53,6.1,21.6,4.07,5.07,10.7,7.6,19.9,7.6,5.73,0,11-1.37,15.8-4.1,4.8-2.73,8.73-6.33,11.8-10.8,3.06-4.47,4.6-9.23,4.6-14.3V50c0-1.6,.53-3,1.6-4.2,1.07-1.2,2.53-1.8,4.4-1.8Z"/><path class="cls-1" d="M428.4,8c12.8,0,22.33,3,28.6,9,6.27,6,9.4,14.87,9.4,26.6,0,6.27-1.53,11.77-4.6,16.5-3.07,4.73-7.6,8.4-13.6,11-6,2.6-13.4,3.9-22.2,3.9l.8-9c4.13,0,8.87,.57,14.2,1.7,5.33,1.13,10.5,3.13,15.5,6,5,2.87,9.13,6.87,12.4,12,3.27,5.13,4.9,11.7,4.9,19.7,0,8.8-1.43,16-4.3,21.6-2.87,5.6-6.63,9.93-11.3,13-4.67,3.07-9.67,5.17-15,6.3-5.33,1.13-10.47,1.7-15.4,1.7h-49.8c-3.47,0-6.37-1.17-8.7-3.5-2.33-2.33-3.5-5.23-3.5-8.7V20.2c0-3.47,1.17-6.37,3.5-8.7,2.33-2.33,5.23-3.5,8.7-3.5h50.4Zm-3.6,23.6h-35.6l2.6-3.2v36.2l-2.4-1.8h36c3.87,0,7.33-1.27,10.4-3.8,3.07-2.53,4.6-6.2,4.6-11,0-5.73-1.43-9.9-4.3-12.5-2.87-2.6-6.63-3.9-11.3-3.9Zm1.6,54.8h-36.4l1.8-1.6v42.2l-2-2h38c6.13,0,11-1.63,14.6-4.9,3.6-3.27,5.4-8.17,5.4-14.7,0-6-1.2-10.33-3.6-13-2.4-2.67-5.27-4.33-8.6-5-3.33-.67-6.4-1-9.2-1Z"/><path class="cls-1" d="M574.2,41c3.46,0,6.33,1.17,8.6,3.5,2.27,2.33,3.4,5.23,3.4,8.7v50.8c0,14.13-3.93,25.33-11.8,33.6-7.87,8.27-19.2,12.4-34,12.4s-26.1-4.13-33.9-12.4c-7.8-8.27-11.7-19.47-11.7-33.6V53.2c0-3.47,1.13-6.37,3.4-8.7,2.27-2.33,5.13-3.5,8.6-3.5s6.33,1.17,8.6,3.5c2.27,2.33,3.4,5.23,3.4,8.7v50.8c0,8.13,1.8,14.17,5.4,18.1,3.6,3.93,9,5.9,16.2,5.9s12.8-1.97,16.4-5.9c3.6-3.93,5.4-9.97,5.4-18.1V53.2c0-3.47,1.13-6.37,3.4-8.7,2.27-2.33,5.13-3.5,8.6-3.5Z"/><path class="cls-1" d="M699.79,0c3.47,0,6.33,1.13,8.6,3.4,2.27,2.27,3.4,5.2,3.4,8.8v123.6c0,3.47-1.13,6.37-3.4,8.7-2.27,2.33-5.13,3.5-8.6,3.5s-6.33-1.17-8.6-3.5c-2.27-2.33-3.4-5.23-3.4-8.7v-9.8l4.4,1.8c0,1.73-.93,3.83-2.8,6.3-1.87,2.47-4.4,4.9-7.6,7.3-3.2,2.4-6.97,4.43-11.3,6.1-4.33,1.67-9.03,2.5-14.1,2.5-9.2,0-17.53-2.37-25-7.1-7.47-4.73-13.37-11.27-17.7-19.6-4.33-8.33-6.5-17.9-6.5-28.7s2.17-20.57,6.5-28.9c4.33-8.33,10.17-14.87,17.5-19.6,7.33-4.73,15.47-7.1,24.4-7.1,5.73,0,11,.87,15.8,2.6,4.8,1.73,8.97,3.93,12.5,6.6,3.53,2.67,6.27,5.37,8.2,8.1,1.93,2.73,2.9,5.04,2.9,6.9l-7.2,2.6V12.2c0-3.47,1.13-6.37,3.4-8.7,2.27-2.33,5.13-3.5,8.6-3.5Zm-40.4,128c5.87,0,11-1.47,15.4-4.4,4.4-2.93,7.83-6.93,10.3-12,2.46-5.07,3.7-10.73,3.7-17s-1.23-12.13-3.7-17.2c-2.47-5.07-5.9-9.07-10.3-12-4.4-2.93-9.53-4.4-15.4-4.4s-10.8,1.47-15.2,4.4c-4.4,2.93-7.83,6.93-10.3,12-2.47,5.07-3.7,10.8-3.7,17.2s1.23,11.93,3.7,17c2.47,5.07,5.9,9.07,10.3,12,4.4,2.93,9.47,4.4,15.2,4.4Z"/><path class="cls-1" d="M825.39,0c3.47,0,6.33,1.13,8.6,3.4,2.27,2.27,3.4,5.2,3.4,8.8v123.6c0,3.47-1.13,6.37-3.4,8.7-2.27,2.33-5.13,3.5-8.6,3.5s-6.33-1.17-8.6-3.5c-2.27-2.33-3.4-5.23-3.4-8.7v-9.8l4.4,1.8c0,1.73-.93,3.83-2.8,6.3-1.87,2.47-4.4,4.9-7.6,7.3-3.2,2.4-6.97,4.43-11.3,6.1-4.33,1.67-9.03,2.5-14.1,2.5-9.2,0-17.53-2.37-25-7.1-7.47-4.73-13.37-11.27-17.7-19.6-4.33-8.33-6.5-17.9-6.5-28.7s2.17-20.57,6.5-28.9c4.33-8.33,10.17-14.87,17.5-19.6,7.33-4.73,15.47-7.1,24.4-7.1,5.73,0,11,.87,15.8,2.6,4.8,1.73,8.97,3.93,12.5,6.6,3.53,2.67,6.27,5.37,8.2,8.1,1.93,2.73,2.9,5.04,2.9,6.9l-7.2,2.6V12.2c0-3.47,1.13-6.37,3.4-8.7,2.27-2.33,5.13-3.5,8.6-3.5Zm-40.4,128c5.87,0,11-1.47,15.4-4.4,4.4-2.93,7.83-6.93,10.3-12,2.46-5.07,3.7-10.73,3.7-17s-1.23-12.13-3.7-17.2c-2.47-5.07-5.9-9.07-10.3-12-4.4-2.93-9.53-4.4-15.4-4.4s-10.8,1.47-15.2,4.4c-4.4,2.93-7.83,6.93-10.3,12-2.47,5.07-3.7,10.8-3.7,17.2s1.23,11.93,3.7,17c2.47,5.07,5.9,9.07,10.3,12,4.4,2.93,9.47,4.4,15.2,4.4Z"/><path class="cls-1" d="M942.79,41c3.46,0,6.33,1.17,8.6,3.5,2.27,2.33,3.4,5.23,3.4,8.7v85c0,12.27-2.3,22.03-6.9,29.3-4.6,7.27-10.77,12.5-18.5,15.7-7.73,3.2-16.4,4.8-26,4.8-4.27,0-8.8-.33-13.6-1-4.8-.67-8.73-1.67-11.8-3-4-1.73-6.77-3.9-8.3-6.5-1.53-2.6-1.83-5.37-.9-8.3,1.2-3.87,3.13-6.5,5.8-7.9,2.67-1.4,5.47-1.57,8.4-.5,2.13,.67,4.93,1.7,8.4,3.1,3.47,1.4,7.47,2.1,12,2.1,6.13,0,11.23-.83,15.3-2.5,4.07-1.67,7.13-4.47,9.2-8.4,2.07-3.93,3.1-9.3,3.1-16.1v-13.4l4.2,4.8c-2.27,4.4-5.1,8.03-8.5,10.9-3.4,2.87-7.43,5.04-12.1,6.5-4.67,1.47-10,2.2-16,2.2-7.07,0-13.23-1.63-18.5-4.9-5.27-3.27-9.37-7.8-12.3-13.6-2.93-5.8-4.4-12.43-4.4-19.9V53.2c0-3.47,1.13-6.37,3.4-8.7,2.27-2.33,5.13-3.5,8.6-3.5s6.33,1.17,8.6,3.5c2.27,2.33,3.4,5.23,3.4,8.7v51.2c0,8.67,1.9,14.77,5.7,18.3,3.8,3.53,9.1,5.3,15.9,5.3,4.67,0,8.6-.9,11.8-2.7,3.2-1.8,5.67-4.46,7.4-8,1.73-3.53,2.6-7.83,2.6-12.9V53.2c0-3.47,1.13-6.37,3.4-8.7,2.27-2.33,5.13-3.5,8.6-3.5Z"/></g></g></svg>