<?xml version="1.0" encoding="UTF-8"?><svg id="Layer_2" xmlns="http://www.w3.org/2000/svg" viewBox="0 0 878.49 75"><defs><style>.cls-1{fill:#eb5528;}.cls-2{fill:#fff;}</style></defs><path class="cls-2" d="M3,9.7c-.8,0-1.5-.27-2.1-.8-.6-.53-.9-1.2-.9-2,0-.87,.3-1.57,.9-2.1,.6-.53,1.3-.8,2.1-.8H50.5c.87,0,1.6,.27,2.2,.8,.6,.53,.9,1.23,.9,2.1s-.3,1.55-.9,2.05-1.33,.75-2.2,.75H3ZM26.8,74c-.93,0-1.7-.3-2.3-.9s-.9-1.3-.9-2.1V7.3h6.3v63.7c0,.8-.3,1.5-.9,2.1s-1.33,.9-2.2,.9Z"/><path class="cls-2" d="M96.8,22.9c.87,0,1.58,.3,2.15,.9s.85,1.33,.85,2.2v45c0,.8-.3,1.5-.9,2.1s-1.3,.9-2.1,.9c-.93,0-1.67-.3-2.2-.9s-.8-1.3-.8-2.1v-11.9l1.7-.7c0,1.8-.52,3.68-1.55,5.65-1.03,1.97-2.45,3.77-4.25,5.4-1.8,1.63-3.92,2.97-6.35,4s-5.05,1.55-7.85,1.55c-4.53,0-8.58-1.17-12.15-3.5s-6.37-5.53-8.4-9.6c-2.03-4.07-3.05-8.63-3.05-13.7s1.03-9.78,3.1-13.75c2.07-3.97,4.87-7.08,8.4-9.35s7.5-3.4,11.9-3.4c2.87,0,5.55,.5,8.05,1.5s4.68,2.37,6.55,4.1c1.87,1.73,3.33,3.72,4.4,5.95s1.6,4.55,1.6,6.95l-2.1-1.5v-12.7c0-.87,.27-1.6,.8-2.2,.53-.6,1.27-.9,2.2-.9Zm-20.8,46.5c3.53,0,6.67-.92,9.4-2.75s4.88-4.37,6.45-7.6,2.35-6.85,2.35-10.85-.78-7.38-2.35-10.55c-1.57-3.17-3.72-5.67-6.45-7.5-2.73-1.83-5.87-2.75-9.4-2.75s-6.58,.88-9.35,2.65c-2.77,1.77-4.93,4.22-6.5,7.35s-2.35,6.73-2.35,10.8,.78,7.62,2.35,10.85,3.72,5.77,6.45,7.6c2.73,1.83,5.87,2.75,9.4,2.75Z"/><path class="cls-2" d="M122.1,71c0,.8-.3,1.5-.9,2.1s-1.3,.9-2.1,.9c-.87,0-1.58-.3-2.15-.9s-.85-1.3-.85-2.1V3c0-.8,.3-1.5,.9-2.1S118.3,0,119.1,0C119.97,0,120.68,.3,121.25,.9c.57,.6,.85,1.3,.85,2.1V71Z"/><path class="cls-2" d="M142.1,74c-.87,0-1.58-.3-2.15-.9-.57-.6-.85-1.3-.85-2.1V3c0-.8,.28-1.5,.85-2.1C140.52,.3,141.23,0,142.1,0s1.58,.3,2.15,.9c.57,.6,.85,1.3,.85,2.1V71c0,.8-.28,1.5-.85,2.1s-1.28,.9-2.15,.9Zm33.9-51.3c.8,0,1.5,.32,2.1,.95,.6,.63,.9,1.32,.9,2.05,0,.87-.37,1.63-1.1,2.3l-33.6,28.6-.3-7.1,30-25.8c.6-.67,1.27-1,2-1h0Zm.9,51.3c-.87,0-1.63-.37-2.3-1.1l-22.7-24.2,4.5-4.1,22.6,24.1c.6,.67,.9,1.44,.9,2.3,0,.93-.37,1.67-1.1,2.2-.73,.54-1.37,.8-1.9,.8Z"/><path class="cls-2" d="M216,23.1h23.3c.8,0,1.47,.28,2,.85s.8,1.25,.8,2.05-.27,1.47-.8,2-1.2,.8-2,.8h-23.3c-.8,0-1.48-.28-2.05-.85s-.85-1.25-.85-2.05,.28-1.47,.85-2,1.25-.8,2.05-.8Zm10.3-14.1c.87,0,1.58,.3,2.15,.9,.57,.6,.85,1.3,.85,2.1V62.2c0,1.87,.25,3.27,.75,4.2s1.15,1.55,1.95,1.85c.8,.3,1.6,.45,2.4,.45,.53,0,1.02-.08,1.45-.25s.92-.25,1.45-.25c.6,0,1.12,.23,1.55,.7,.43,.47,.65,1.07,.65,1.8,0,.94-.53,1.72-1.6,2.35s-2.33,.95-3.8,.95c-.6,0-1.5-.05-2.7-.15s-2.43-.46-3.7-1.1c-1.27-.63-2.33-1.75-3.2-3.35s-1.3-3.9-1.3-6.9V12c0-.8,.3-1.5,.9-2.1,.6-.6,1.33-.9,2.2-.9h0Z"/><path class="cls-2" d="M300.3,48.4c0,5.07-1.1,9.62-3.3,13.65-2.2,4.04-5.2,7.2-9,9.5s-8.13,3.45-13,3.45-9.02-1.15-12.85-3.45c-3.83-2.3-6.87-5.46-9.1-9.5-2.23-4.03-3.35-8.58-3.35-13.65s1.12-9.7,3.35-13.7c2.23-4,5.27-7.17,9.1-9.5,3.83-2.33,8.12-3.5,12.85-3.5s9.2,1.17,13,3.5,6.8,5.5,9,9.5,3.3,8.57,3.3,13.7Zm-6,0c0-4.07-.83-7.68-2.5-10.85s-3.95-5.65-6.85-7.45c-2.9-1.8-6.22-2.7-9.95-2.7s-6.87,.9-9.8,2.7c-2.93,1.8-5.25,4.28-6.95,7.45-1.7,3.17-2.55,6.78-2.55,10.85s.85,7.67,2.55,10.8,4.02,5.62,6.95,7.45c2.93,1.83,6.2,2.75,9.8,2.75s7.05-.92,9.95-2.75,5.18-4.32,6.85-7.45,2.5-6.73,2.5-10.8Z"/><path class="cls-2" d="M382.29,22.9c.87,0,1.58,.3,2.15,.9s.85,1.33,.85,2.2v45c0,.8-.3,1.5-.9,2.1s-1.3,.9-2.1,.9c-.93,0-1.67-.3-2.2-.9s-.8-1.3-.8-2.1v-11.9l1.7-.7c0,1.8-.52,3.68-1.55,5.65-1.03,1.97-2.45,3.77-4.25,5.4-1.8,1.63-3.92,2.97-6.35,4s-5.05,1.55-7.85,1.55c-4.53,0-8.58-1.17-12.15-3.5s-6.37-5.53-8.4-9.6-3.05-8.63-3.05-13.7,1.03-9.78,3.1-13.75c2.07-3.97,4.87-7.08,8.4-9.35s7.5-3.4,11.9-3.4c2.87,0,5.55,.5,8.05,1.5s4.68,2.37,6.55,4.1c1.87,1.73,3.33,3.72,4.4,5.95s1.6,4.55,1.6,6.95l-2.1-1.5v-12.7c0-.87,.27-1.6,.8-2.2s1.27-.9,2.2-.9Zm-20.8,46.5c3.53,0,6.67-.92,9.4-2.75,2.73-1.83,4.88-4.37,6.45-7.6s2.35-6.85,2.35-10.85-.78-7.38-2.35-10.55c-1.57-3.17-3.72-5.67-6.45-7.5s-5.87-2.75-9.4-2.75-6.58,.88-9.35,2.65c-2.77,1.77-4.93,4.22-6.5,7.35s-2.35,6.73-2.35,10.8,.78,7.62,2.35,10.85,3.71,5.77,6.45,7.6c2.73,1.83,5.87,2.75,9.4,2.75Z"/><path class="cls-2" d="M449.99,75c-4.8,0-9.07-.65-12.8-1.95-3.73-1.3-7.3-3.48-10.7-6.55-.73-.6-1.28-1.28-1.65-2.05-.37-.77-.55-1.55-.55-2.35,0-1.27,.46-2.4,1.4-3.4,.93-1,2.1-1.5,3.5-1.5,1.07,0,2.07,.37,3,1.1,2.53,2.33,5.18,4.1,7.95,5.3,2.77,1.2,6.02,1.8,9.75,1.8,2.67,0,5.12-.43,7.35-1.3,2.23-.87,4.02-2.03,5.35-3.5,1.33-1.47,2-3.17,2-5.1-.07-2.4-.77-4.37-2.1-5.9-1.33-1.53-3.28-2.83-5.85-3.9s-5.65-1.93-9.25-2.6c-3.33-.67-6.33-1.53-9-2.6s-4.92-2.42-6.75-4.05-3.25-3.58-4.25-5.85c-1-2.27-1.5-4.87-1.5-7.8,0-4.07,1.07-7.58,3.2-10.55s5.03-5.25,8.7-6.85,7.8-2.4,12.4-2.4c4.2,0,8.13,.65,11.8,1.95,3.67,1.3,6.63,3.05,8.9,5.25,1.6,1.4,2.4,2.9,2.4,4.5,0,1.27-.48,2.4-1.45,3.4s-2.08,1.5-3.35,1.5c-.93,0-1.73-.27-2.4-.8-1.07-1.13-2.5-2.15-4.3-3.05-1.8-.9-3.72-1.65-5.75-2.25-2.04-.6-3.98-.9-5.85-.9-3,0-5.57,.42-7.7,1.25s-3.77,1.97-4.9,3.4-1.7,3.15-1.7,5.15c0,2.27,.65,4.12,1.95,5.55,1.3,1.43,3.12,2.6,5.45,3.5,2.33,.9,5,1.72,8,2.45,3.67,.8,6.95,1.7,9.85,2.7s5.35,2.28,7.35,3.85,3.53,3.52,4.6,5.85,1.6,5.23,1.6,8.7c0,4-1.13,7.5-3.4,10.5s-5.25,5.33-8.95,7-7.82,2.5-12.35,2.5h0Z"/><path class="cls-2" d="M525.09,21.4c1.4,0,2.58,.48,3.55,1.45,.97,.97,1.45,2.18,1.45,3.65v26.3c0,6.94-1.93,12.35-5.8,16.25s-9.33,5.85-16.4,5.85-12.52-1.95-16.35-5.85c-3.83-3.9-5.75-9.31-5.75-16.25V26.5c0-1.47,.48-2.68,1.45-3.65s2.18-1.45,3.65-1.45,2.58,.48,3.55,1.45c.97,.97,1.45,2.18,1.45,3.65v26.3c0,4.33,1.02,7.57,3.05,9.7,2.03,2.13,5.02,3.2,8.95,3.2s7.02-1.06,9.05-3.2c2.03-2.13,3.05-5.37,3.05-9.7V26.5c0-1.47,.48-2.68,1.45-3.65,.97-.97,2.18-1.45,3.65-1.45h0Z"/><path class="cls-2" d="M570.49,20.2c4.67,0,8.82,1.17,12.45,3.5s6.52,5.55,8.65,9.65,3.2,8.82,3.2,14.15-1.07,10.07-3.2,14.2-5,7.38-8.6,9.75c-3.6,2.37-7.67,3.55-12.2,3.55-2.53,0-4.93-.42-7.2-1.25s-4.27-1.9-6-3.2c-1.73-1.3-3.15-2.68-4.25-4.15s-1.78-2.8-2.05-4l2.7-1.4v8.7c0,1.4-.48,2.6-1.45,3.6-.97,1-2.15,1.5-3.55,1.5s-2.68-.48-3.65-1.45c-.97-.96-1.45-2.18-1.45-3.65V5.1c0-1.4,.48-2.6,1.45-3.6C546.31,.5,547.52,0,548.99,0s2.58,.5,3.55,1.5,1.45,2.2,1.45,3.6v28.1l-1.6-.9c.2-1.27,.83-2.58,1.9-3.95s2.42-2.68,4.05-3.95,3.5-2.28,5.6-3.05c2.1-.77,4.28-1.15,6.55-1.15h0Zm-1.1,9.3c-3.2,0-5.98,.78-8.35,2.35-2.37,1.57-4.22,3.7-5.55,6.4s-2,5.78-2,9.25,.67,6.58,2,9.35c1.33,2.77,3.18,4.95,5.55,6.55,2.37,1.6,5.15,2.4,8.35,2.4s5.87-.8,8.2-2.4,4.17-3.8,5.5-6.6,2-5.9,2-9.3-.67-6.55-2-9.25-3.17-4.83-5.5-6.4c-2.33-1.57-5.07-2.35-8.2-2.35Z"/><path class="cls-1" d="M611.09,74c-1.47,0-2.68-.48-3.65-1.45-.97-.96-1.45-2.18-1.45-3.65V26.5c0-1.47,.48-2.68,1.45-3.65,.97-.97,2.18-1.45,3.65-1.45s2.58,.48,3.55,1.45c.97,.97,1.45,2.18,1.45,3.65v11.2l-1-4.3c.53-1.87,1.35-3.6,2.45-5.2,1.1-1.6,2.42-3,3.95-4.2s3.25-2.13,5.15-2.8c1.9-.67,3.88-1,5.95-1,1.73,0,3.23,.47,4.5,1.4s1.9,2.1,1.9,3.5c0,1.8-.47,3.12-1.4,3.95-.93,.83-1.97,1.25-3.1,1.25-1,0-1.97-.22-2.9-.65-.93-.43-2.03-.65-3.3-.65-1.4,0-2.83,.37-4.3,1.1s-2.8,1.82-4,3.25-2.15,3.12-2.85,5.05c-.7,1.93-1.05,4.1-1.05,6.5v24c0,1.47-.48,2.68-1.45,3.65-.97,.97-2.15,1.45-3.55,1.45h0Z"/><path class="cls-1" d="M670.19,75c-5.53,0-10.33-1.15-14.4-3.45-4.07-2.3-7.22-5.46-9.45-9.5-2.23-4.03-3.35-8.65-3.35-13.85,0-5.87,1.18-10.88,3.55-15.05,2.37-4.17,5.45-7.37,9.25-9.6,3.8-2.23,7.83-3.35,12.1-3.35,3.27,0,6.37,.65,9.3,1.95,2.93,1.3,5.55,3.1,7.85,5.4s4.12,5,5.45,8.1c1.33,3.1,2.03,6.48,2.1,10.15-.07,1.33-.6,2.44-1.6,3.3-1,.87-2.17,1.3-3.5,1.3h-38.9l-2.4-8.5h37.6l-1.9,1.8v-2.5c-.2-2.33-1-4.37-2.4-6.1s-3.12-3.1-5.15-4.1c-2.04-1-4.18-1.5-6.45-1.5-2,0-3.92,.32-5.75,.95-1.83,.63-3.47,1.65-4.9,3.05-1.43,1.4-2.57,3.25-3.4,5.55s-1.25,5.15-1.25,8.55c0,3.67,.77,6.87,2.3,9.6,1.53,2.73,3.6,4.85,6.2,6.35,2.6,1.5,5.46,2.25,8.6,2.25,2.47,0,4.48-.25,6.05-.75s2.9-1.12,4-1.85,2.05-1.43,2.85-2.1c1-.6,1.96-.9,2.9-.9,1.27,0,2.3,.42,3.1,1.25s1.2,1.82,1.2,2.95c0,1.47-.73,2.8-2.2,4-1.8,1.73-4.29,3.27-7.45,4.6-3.17,1.33-6.48,2-9.95,2h0Z"/><path class="cls-1" d="M746.99,0c1.47,0,2.67,.48,3.6,1.45,.93,.97,1.4,2.18,1.4,3.65v63.8c0,1.47-.47,2.68-1.4,3.65-.93,.97-2.13,1.45-3.6,1.45s-2.67-.48-3.6-1.45c-.93-.96-1.4-2.18-1.4-3.65v-7.2l2.1,.1c0,1.27-.48,2.65-1.45,4.15-.97,1.5-2.28,2.94-3.95,4.3-1.67,1.37-3.63,2.5-5.9,3.4s-4.7,1.35-7.3,1.35c-4.6,0-8.73-1.18-12.4-3.55-3.67-2.37-6.57-5.6-8.7-9.7-2.13-4.1-3.2-8.82-3.2-14.15s1.07-10.05,3.2-14.15c2.13-4.1,5.02-7.33,8.65-9.7,3.63-2.37,7.65-3.55,12.05-3.55,2.87,0,5.52,.47,7.95,1.4s4.55,2.13,6.35,3.6c1.8,1.47,3.2,3.02,4.2,4.65s1.5,3.18,1.5,4.65l-3.1,.3V5.1c0-1.47,.47-2.68,1.4-3.65,.93-.97,2.13-1.45,3.6-1.45h0Zm-20.4,65.8c3.2,0,5.98-.8,8.35-2.4s4.22-3.77,5.55-6.5,2-5.83,2-9.3-.67-6.57-2-9.3-3.2-4.88-5.6-6.45c-2.4-1.57-5.17-2.35-8.3-2.35s-5.78,.78-8.15,2.35-4.23,3.72-5.6,6.45-2.05,5.83-2.05,9.3,.68,6.57,2.05,9.3,3.23,4.9,5.6,6.5,5.08,2.4,8.15,2.4Z"/><path class="cls-1" d="M809.09,0c1.47,0,2.67,.48,3.6,1.45,.93,.97,1.4,2.18,1.4,3.65v63.8c0,1.47-.47,2.68-1.4,3.65-.93,.97-2.13,1.45-3.6,1.45s-2.67-.48-3.6-1.45c-.93-.96-1.4-2.18-1.4-3.65v-7.2l2.1,.1c0,1.27-.48,2.65-1.45,4.15-.97,1.5-2.28,2.94-3.95,4.3-1.67,1.37-3.63,2.5-5.9,3.4s-4.7,1.35-7.3,1.35c-4.6,0-8.73-1.18-12.4-3.55-3.67-2.37-6.57-5.6-8.7-9.7-2.13-4.1-3.2-8.82-3.2-14.15s1.07-10.05,3.2-14.15c2.13-4.1,5.02-7.33,8.65-9.7,3.63-2.37,7.65-3.55,12.05-3.55,2.87,0,5.52,.47,7.95,1.4s4.55,2.13,6.35,3.6c1.8,1.47,3.2,3.02,4.2,4.65s1.5,3.18,1.5,4.65l-3.1,.3V5.1c0-1.47,.47-2.68,1.4-3.65,.93-.97,2.13-1.45,3.6-1.45h0Zm-20.4,65.8c3.2,0,5.98-.8,8.35-2.4s4.22-3.77,5.55-6.5,2-5.83,2-9.3-.67-6.57-2-9.3-3.2-4.88-5.6-6.45c-2.4-1.57-5.17-2.35-8.3-2.35s-5.78,.78-8.15,2.35-4.23,3.72-5.6,6.45-2.05,5.83-2.05,9.3,.68,6.57,2.05,9.3,3.23,4.9,5.6,6.5,5.08,2.4,8.15,2.4Z"/><path class="cls-1" d="M837.49,68.9c0,1.47-.47,2.68-1.4,3.65-.93,.97-2.13,1.45-3.6,1.45s-2.67-.48-3.6-1.45c-.93-.96-1.4-2.18-1.4-3.65V26.1c0-1.47,.48-2.68,1.45-3.65s2.15-1.45,3.55-1.45,2.67,.48,3.6,1.45c.93,.97,1.4,2.18,1.4,3.65v42.8Z"/><path class="cls-1" d="M850.29,22h23.5c1.33,0,2.45,.45,3.35,1.35,.9,.9,1.35,2.02,1.35,3.35s-.45,2.43-1.35,3.3c-.9,.87-2.02,1.3-3.35,1.3h-23.5c-1.33,0-2.45-.45-3.35-1.35-.9-.9-1.35-2.02-1.35-3.35s.45-2.43,1.35-3.3c.9-.87,2.02-1.3,3.35-1.3Zm10.5-13c1.47,0,2.67,.48,3.6,1.45s1.4,2.18,1.4,3.65V60.5c0,1.2,.2,2.17,.6,2.9,.4,.73,.95,1.23,1.65,1.5s1.42,.4,2.15,.4,1.38-.13,1.95-.4c.57-.27,1.25-.4,2.05-.4s1.53,.37,2.2,1.1c.67,.73,1,1.73,1,3,0,1.6-.87,2.9-2.6,3.9s-3.6,1.5-5.6,1.5c-1.13,0-2.47-.1-4-.3-1.53-.2-3.02-.7-4.45-1.5s-2.63-2.08-3.6-3.85-1.45-4.25-1.45-7.45V14.1c0-1.47,.5-2.68,1.5-3.65,1-.97,2.2-1.45,3.6-1.45h0Z"/><path class="cls-2" d="M832.49,3.65c2,0,3.43,.35,4.3,1.05,.87,.7,1.3,1.85,1.3,3.45v1.6c0,1.73-.45,2.93-1.35,3.6-.9,.67-2.35,1-4.35,1h0c-1.93,0-3.33-.35-4.2-1.05s-1.3-1.88-1.3-3.55v-1.6c0-1.67,.47-2.83,1.4-3.5,.93-.67,2.33-1,4.2-1Z"/></svg>